{
  "accessors": [
    {
      "bufferView": 2,
      "componentType": 5126,
      "count": 787,
      "max": [
        0.268430233001709,
        0.268430233001709,
        0.7527495622634888
      ],
      "min": [
        -0.268430233001709,
        -0.268430233001709,
        0.0
      ],
      "type": "VEC3"
    },
    {
      "bufferView": 2,
      "byteOffset": 9444,
      "componentType": 5126,
      "count": 787,
      "max": [
        0.9984238743782043,
        0.9984238743782043,
        1.0
      ],
      "min": [
        -0.9984238743782043,
        -0.9984238743782043,
        -1.0
      ],
      "type": "VEC3"
    },
    {
      "bufferView": 1,
      "componentType": 5126,
      "count": 787,
      "max": [
        1.0,
        1.0
      ],
      "min": [
        0.0,
        0.01000000536441803
      ],
      "type": "VEC2"
    },
    {
      "bufferView": 0,
      "componentType": 5125,
      "count": 2592,
      "type": "SCALAR"
    },
    {
      "bufferView": 2,
      "byteOffset": 18888,
      "componentType": 5126,
      "count": 548,
      "max": [
        0.25413790345191956,
        0.25413790345191956,
        0.0
      ],
      "min": [
        -0.25413790345191956,
        -0.25413790345191956,
        -0.7527490854263306
      ],
      "type": "VEC3"
    },
    {
      "bufferView": 2,
      "byteOffset": 25464,
      "componentType": 5126,
      "count": 548,
      "max": [
        1.0,
        1.0,
        0.0
      ],
      "min": [
        -1.0,
        -1.0,
        -1.0
      ],
      "type": "VEC3"
    },
    {
      "bufferView": 1,
      "byteOffset": 6296,
      "componentType": 5126,
      "count": 548,
      "max": [
        1.0,
        0.75
      ],
      "min": [
        0.0,
        0.5
      ],
      "type": "VEC2"
    },
    {
      "bufferView": 0,
      "byteOffset": 10368,
      "componentType": 5125,
      "count": 1632,
      "type": "SCALAR"
    },
    {
      "bufferView": 2,
      "byteOffset": 32040,
      "componentType": 5126,
      "count": 270,
      "max": [
        0.6687775254249573,
        0.6687775254249573,
        0.12828518450260162
      ],
      "min": [
        -0.6687775254249573,
        -0.6687775254249573,
        -0.11310245096683502
      ],
      "type": "VEC3"
    },
    {
      "bufferView": 2,
      "byteOffset": 35280,
      "componentType": 5126,
      "count": 270,
      "max": [
        1.0,
        1.0,
        1.0
      ],
      "min": [
        -1.0,
        -1.0,
        -1.0
      ],
      "type": "VEC3"
    },
    {
      "bufferView": 1,
      "byteOffset": 10680,
      "componentType": 5126,
      "count": 270,
      "max": [
        8.152164459228516,
        11.005145072937012
      ],
      "min": [
        -7.411345958709717,
        -10.005145072937012
      ],
      "type": "VEC2"
    },
    {
      "bufferView": 0,
      "byteOffset": 16896,
      "componentType": 5125,
      "count": 768,
      "type": "SCALAR"
    },
    {
      "bufferView": 2,
      "byteOffset": 38520,
      "componentType": 5126,
      "count": 270,
      "max": [
        0.6813988089561462,
        0.3483796715736389,
        0.1486978977918625
      ],
      "min": [
        -0.6813988089561462,
        -0.3483796715736389,
        -0.1050807312130928
      ],
      "type": "VEC3"
    },
    {
      "bufferView": 2,
      "byteOffset": 41760,
      "componentType": 5126,
      "count": 270,
      "max": [
        1.0,
        1.0,
        1.0
      ],
      "min": [
        -1.0,
        -1.0,
        -1.0
      ],
      "type": "VEC3"
    },
    {
      "bufferView": 1,
      "byteOffset": 12840,
      "componentType": 5126,
      "count": 270,
      "max": [
        3.511347532272339,
        3.691822052001953
      ],
      "min": [
        -2.5602223873138428,
        -2.691822052001953
      ],
      "type": "VEC2"
    },
    {
      "bufferView": 0,
      "byteOffset": 19968,
      "componentType": 5125,
      "count": 768,
      "type": "SCALAR"
    },
    {
      "bufferView": 2,
      "byteOffset": 45000,
      "componentType": 5126,
      "count": 514,
      "max": [
        0.9999997019767761,
        0.9999987483024597,
        1.0
      ],
      "min": [
        -0.9999990463256836,
        -0.9999994039535522,
        -1.0
      ],
      "type": "VEC3"
    },
    {
      "bufferView": 2,
      "byteOffset": 51168,
      "componentType": 5126,
      "count": 514,
      "max": [
        1.0,
        1.0,
        1.0
      ],
      "min": [
        -1.0,
        -1.0,
        -1.0
      ],
      "type": "VEC3"
    },
    {
      "bufferView": 1,
      "byteOffset": 15000,
      "componentType": 5126,
      "count": 514,
      "max": [
        0.6108153462409973,
        0.3068099915981293
      ],
      "min": [
        0.3891846537590027,
        0.19550387561321259
      ],
      "type": "VEC2"
    },
    {
      "bufferView": 0,
      "byteOffset": 23040,
      "componentType": 5125,
      "count": 2880,
      "type": "SCALAR"
    },
    {
      "bufferView": 2,
      "byteOffset": 57336,
      "componentType": 5126,
      "count": 516,
      "max": [
        0.9999997615814209,
        0.9999987483024597,
        1.3492079973220825
      ],
      "min": [
        -0.9999990463256836,
        -0.9999994039535522,
        -0.48549938201904297
      ],
      "type": "VEC3"
    },
    {
      "bufferView": 2,
      "byteOffset": 63528,
      "componentType": 5126,
      "count": 516,
      "max": [
        1.0,
        1.0,
        1.0
      ],
      "min": [
        -1.0,
        -1.0,
        -1.0
      ],
      "type": "VEC3"
    },
    {
      "bufferView": 1,
      "byteOffset": 19112,
      "componentType": 5126,
      "count": 516,
      "max": [
        4.408708572387695,
        8.527395248413086
      ],
      "min": [
        -3.8916032314300537,
        -7.527395248413086
      ],
      "type": "VEC2"
    },
    {
      "bufferView": 0,
      "byteOffset": 34560,
      "componentType": 5125,
      "count": 2688,
      "type": "SCALAR"
    }
  ],
  "asset": {
    "extras": {
      "author": "assetfactory (https://sketchfab.com/assetfactory)",
      "license": "SKETCHFAB Standard (https://sketchfab.com/licenses)",
      "source": "https://sketchfab.com/3d-models/variety-of-pills-83bfae312e3b4655a7520c63332de54f",
      "title": "Variety of Pills"
    },
    "generator": "Sketchfab-16.33.0",
    "version": "2.0"
  },
  "bufferViews": [
    {
      "buffer": 0,
      "byteLength": 45312,
      "name": "floatBufferViews",
      "target": 34963
    },
    {
      "buffer": 0,
      "byteLength": 23240,
      "byteOffset": 45312,
      "byteStride": 8,
      "name": "floatBufferViews",
      "target": 34962
    },
    {
      "buffer": 0,
      "byteLength": 69720,
      "byteOffset": 68552,
      "byteStride": 12,
      "name": "floatBufferViews",
      "target": 34962
    }
  ],
  "buffers": [
    {
      "byteLength": 138272,
      "uri": "scene.bin"
    }
  ],
  "materials": [
    {
      "doubleSided": true,
      "name": "WhiteSmooth",
      "pbrMetallicRoughness": {
        "baseColorFactor": [
          0.8,
          0.8,
          0.8,
          1.0
        ],
        "metallicFactor": 0.0,
        "roughnessFactor": 0.058306213872272195
      }
    },
    {
      "doubleSided": true,
      "name": "material",
      "pbrMetallicRoughness": {
        "baseColorFactor": [
          0.4575309999999999,
          0.004448619999999995,
          0.0036016199999999964,
          1.0
        ],
        "metallicFactor": 0.0,
        "roughnessFactor": 0.02252006235977893
      }
    },
    {
      "doubleSided": true,
      "name": "White",
      "pbrMetallicRoughness": {
        "baseColorFactor": [
          0.8,
          0.8,
          0.8,
          1.0
        ],
        "metallicFactor": 0.0,
        "roughnessFactor": 0.8211145618000169
      }
    },
    {
      "doubleSided": true,
      "name": "Pink",
      "pbrMetallicRoughness": {
        "baseColorFactor": [
          0.8,
          0.53021,
          0.650813,
          1.0
        ],
        "metallicFactor": 0.0,
        "roughnessFactor": 0.8666688811342149
      }
    },
    {
      "doubleSided": true,
      "name": "RoundPill",
      "pbrMetallicRoughness": {
        "baseColorFactor": [
          0.0538692,
          0.220257,
          0.00978313,
          1.0
        ],
        "metallicFactor": 0.0,
        "roughnessFactor": 0.9620568913795431
      }
    }
  ],
  "meshes": [
    {
      "name": "Pill1_WhiteSmooth_0",
      "primitives": [
        {
          "attributes": {
            "NORMAL": 1,
            "POSITION": 0,
            "TEXCOORD_0": 2
          },
          "indices": 3,
          "material": 0,
          "mode": 4
        }
      ]
    },
    {
      "name": "Pill1_Red_0",
      "primitives": [
        {
          "attributes": {
            "NORMAL": 5,
            "POSITION": 4,
            "TEXCOORD_0": 6
          },
          "indices": 7,
          "material": 1,
          "mode": 4
        }
      ]
    },
    {
      "name": "Pill2_White_0",
      "primitives": [
        {
          "attributes": {
            "NORMAL": 9,
            "POSITION": 8,
            "TEXCOORD_0": 10
          },
          "indices": 11,
          "material": 2,
          "mode": 4
        }
      ]
    },
    {
      "name": "Pill3_Pink_0",
      "primitives": [
        {
          "attributes": {
            "NORMAL": 13,
            "POSITION": 12,
            "TEXCOORD_0": 14
          },
          "indices": 15,
          "material": 3,
          "mode": 4
        }
      ]
    },
    {
      "name": "Pill5_RoundPill_0",
      "primitives": [
        {
          "attributes": {
            "NORMAL": 17,
            "POSITION": 16,
            "TEXCOORD_0": 18
          },
          "indices": 19,
          "material": 4,
          "mode": 4
        }
      ]
    },
    {
      "name": "Pill4_White_0",
      "primitives": [
        {
          "attributes": {
            "NORMAL": 21,
            "POSITION": 20,
            "TEXCOORD_0": 22
          },
          "indices": 23,
          "material": 2,
          "mode": 4
        }
      ]
    }
  ],
  "nodes": [
    {
      "children": [
        1
      ],
      "matrix": [
        1.0,
        0.0,
        0.0,
        0.0,
        0.0,
        2.220446049250313e-16,
        -1.0,
        0.0,
        0.0,
        1.0,
        2.220446049250313e-16,
        0.0,
        0.0,
        0.0,
        0.0,
        1.0
      ],
      "name": "Sketchfab_model"
    },
    {
      "children": [
        2
      ],
      "matrix": [
        0.009999999776482582,
        0.0,
        0.0,
        0.0,
        0.0,
        0.0,
        0.009999999776482582,
        0.0,
        0.0,
        -0.009999999776482582,
        0.0,
        0.0,
        0.0,
        0.0,
        0.0,
        1.0
      ],
      "name": "Pills.fbx"
    },
    {
      "children": [
        3,
        6,
        8,
        10,
        12
      ],
      "name": "RootNode"
    },
    {
      "children": [
        4,
        5
      ],
      "matrix": [
        100.0,
        0.0,
        0.0,
        0.0,
        -0.0,
        -1.629206793918314e-05,
        -99.99999999999868,
        0.0,
        0.0,
        99.99999999999868,
        -1.629206793918314e-05,
        0.0,
        -143.1836395263672,
        0.0,
        0.0,
        1.0
      ],
      "name": "Pill1"
    },
    {
      "mesh": 0,
      "name": "Pill1_WhiteSmooth_0"
    },
    {
      "mesh": 1,
      "name": "Pill1_Red_0"
    },
    {
      "children": [
        7
      ],
      "matrix": [
        100.0,
        0.0,
        0.0,
        0.0,
        0.0,
        99.9999999999999,
        4.371138828673792e-06,
        0.0,
        0.0,
        -4.371138828673792e-06,
        99.9999999999999,
        0.0,
        0.0,
        0.0,
        0.0,
        1.0
      ],
      "name": "Pill2"
    },
    {
      "mesh": 2,
      "name": "Pill2_White_0"
    },
    {
      "children": [
        9
      ],
      "matrix": [
        100.0,
        0.0,
        0.0,
        0.0,
        0.0,
        99.9999999999999,
        4.371138828673792e-06,
        0.0,
        0.0,
        -4.371138828673792e-06,
        99.9999999999999,
        0.0,
        153.62889099121094,
        0.0,
        0.0,
        1.0
      ],
      "name": "Pill3"
    },
    {
      "mesh": 3,
      "name": "Pill3_Pink_0"
    },
    {
      "children": [
        11
      ],
      "matrix": [
        38.28878402709961,
        0.0,
        0.0,
        0.0,
        0.0,
        38.288784027099574,
        1.673656041664687e-06,
        0.0,
        0.0,
        -6.234368025688404e-07,
        14.262570381164537,
        0.0,
        424.2576599121094,
        0.0,
        0.0,
        1.0
      ],
      "name": "Pill5"
    },
    {
      "mesh": 4,
      "name": "Pill5_RoundPill_0"
    },
    {
      "children": [
        13
      ],
      "matrix": [
        50.035308837890625,
        0.0,
        0.0,
        0.0,
        0.0,
        50.035308837890575,
        2.1871128126598866e-06,
        0.0,
        0.0,
        -8.14699462687351e-07,
        18.638151168823224,
        0.0,
        296.5524597167969,
        0.0,
        0.0,
        1.0
      ],
      "name": "Pill4"
    },
    {
      "mesh": 5,
      "name": "Pill4_White_0"
    }
  ],
  "scene": 0,
  "scenes": [
    {
      "name": "Sketchfab_Scene",
      "nodes": [
        0
      ]
    }
  ]
}
